<svg width="57" height="47" viewBox="0 0 57 47" fill="none" xmlns="http://www.w3.org/2000/svg">
<mask id="mask0_19_146" style="mask-type:luminance" maskUnits="userSpaceOnUse" x="0" y="0" width="57" height="47">
<path d="M0.171132 46.1611L56.3835 45.6852L56.3746 0.0442854L0.162277 0.520217L0.171132 46.1611Z" fill="white"/>
</mask>
<g mask="url(#mask0_19_146)">
<path d="M38.0461 12.1837C38.3428 12.1812 38.6395 12.1894 38.9362 12.2031L48.8724 27.3593C48.8724 27.3647 48.8777 27.3646 48.8777 27.37L52.8344 33.4004L55.5 37.4634C56.0273 38.2697 56.3272 39.2063 56.3683 40.1742C56.4093 41.1421 56.1899 42.1053 55.7331 42.9621C55.2764 43.8188 54.5994 44.5373 53.7736 45.0415C52.9478 45.5457 52.004 45.817 51.0418 45.8266L39.7675 45.9221C40.8237 43.7421 41.3734 41.352 41.3748 38.9341C41.3762 36.5162 40.8292 34.1346 39.7755 31.9708C39.7381 31.8964 39.7007 31.8166 39.6568 31.7423C39.63 31.6941 39.6033 31.6519 39.5719 31.6038L37.777 28.865L37.7663 28.8543L32.296 20.5214C32.2907 20.5161 32.2853 20.5054 32.28 20.5L30.4958 17.7778C30.1786 17.2863 29.7094 16.9144 29.16 16.7192C28.6106 16.5238 28.0113 16.516 27.4539 16.6967L27.4534 16.6987L27.4523 16.7003L27.4505 16.7014L27.4485 16.7016C27.2415 16.7672 27.0433 16.8588 26.8588 16.9743C28.3247 15.4766 30.0674 14.2825 31.9868 13.4606C33.9063 12.6386 35.9648 12.2049 38.0443 12.1843L38.0461 12.1837Z" fill="url(#paint0_linear_19_146)"/>
<path d="M39.8078 31.9785C40.8651 34.1405 41.413 36.5224 41.4092 38.9403C41.4103 39.7649 41.3465 40.589 41.2183 41.4046C41.2174 41.421 41.2138 41.4372 41.2077 41.4525C40.9667 43.0115 40.492 44.5264 39.7998 45.9453L39.5497 45.9475C39.358 45.9494 39.1663 45.9402 38.9757 45.92L38.9544 45.9202C37.4719 45.7846 36.0969 45.0984 35.0967 43.9949C34.0964 42.8914 33.5422 41.4495 33.5418 39.9493L33.541 35.8645L37.3524 35.8322C38.012 35.8273 38.6487 35.5785 39.1416 35.133C39.6344 34.6876 39.949 34.0766 40.0256 33.4162C40.0867 32.9249 40.0113 32.4272 39.8078 31.9785Z" fill="url(#paint1_linear_19_146)"/>
<path d="M32.7485 2.60041L38.9784 12.1039C38.6816 12.0903 38.3849 12.082 38.0882 12.0846C36.0085 12.1051 33.9499 12.5389 32.0303 13.3609C30.1107 14.1829 28.368 15.3771 26.9019 16.875C26.555 17.0861 26.2607 17.375 26.0422 17.7191L25.6334 18.3477C25.1189 19.0173 24.6592 19.7277 24.2589 20.4717C24.2506 20.4837 24.2435 20.4963 24.2375 20.5095L16.9868 31.6998C16.719 32.1107 16.5664 32.5861 16.545 33.0755C16.5237 33.5648 16.6344 34.0498 16.8656 34.4786C17.0967 34.9074 17.4396 35.2641 17.8575 35.5106C18.2755 35.7572 18.753 35.8843 19.2391 35.8785L23.0459 35.8463L23.0467 39.9245C23.0468 41.5271 22.415 43.0694 21.2901 44.2122C20.1652 45.3549 18.6395 46.0046 17.0483 46.0182L5.52165 46.1158C4.9703 46.1235 4.42196 46.0434 3.89681 45.8786C3.22163 45.6747 2.59751 45.3302 2.06477 44.8672C2.00542 44.8193 1.95318 44.7719 1.89502 44.724C1.87947 44.7134 1.86511 44.7011 1.85223 44.6873C0.937414 43.8283 0.356109 42.6687 0.211132 41.4134C0.0660948 40.1582 0.366774 38.888 1.05987 37.8274L22.042 5.43282L23.8305 2.67476C24.317 1.92744 24.979 1.31186 25.7572 0.883279C26.5355 0.45464 27.4055 0.226473 28.2894 0.219104C29.1733 0.211739 30.0434 0.425402 30.8216 0.841039C31.5999 1.25667 32.262 1.86115 32.7485 2.60041Z" fill="#0F4C67"/>
<path d="M25.6119 18.3527L24.2363 20.4781C24.637 19.7336 25.097 19.0227 25.6119 18.3527Z" fill="url(#paint2_linear_19_146)"/>
<g style="mix-blend-mode:screen" opacity="0.25">
<path d="M28.2479 1.30041C28.9584 1.28626 29.659 1.45228 30.2844 1.78314C30.9099 2.11394 31.44 2.5988 31.8255 3.1927L36.3357 10.0345C32.1951 7.68567 25.2659 7.65627 14.69 18.6204L24.6786 3.26684C25.0632 2.66568 25.5921 2.17018 26.2162 1.82631C26.8403 1.48251 27.5392 1.30157 28.2479 1.30041Z" fill="white"/>
</g>
<g style="mix-blend-mode:multiply" opacity="0.3">
<path d="M18.8178 35.6656L18.7586 35.6612L18.8059 35.6607C18.8124 35.6656 18.8124 35.6656 18.8178 35.6656Z" fill="black"/>
</g>
<g style="mix-blend-mode:multiply" opacity="0.3">
<path d="M17.2948 31.9057L17.3214 31.8529L17.3105 31.8843C17.3051 31.8897 17.2991 31.9004 17.2948 31.9057Z" fill="black"/>
</g>
<g style="mix-blend-mode:multiply" opacity="0.3">
<path d="M38.0988 12.1178C37.4766 12.2315 36.8543 12.3244 36.2427 12.4642C35.6311 12.6041 35.0201 12.7397 34.4245 12.9331C33.8182 13.0997 33.2328 13.336 32.6479 13.5453C32.0683 13.7814 31.4942 14.0169 30.9408 14.3059C30.3837 14.583 29.8438 14.8939 29.3238 15.2367C28.8037 15.5717 28.3061 15.9412 27.8346 16.3426C27.7157 16.4453 27.6057 16.548 27.4891 16.6507L27.4888 16.6527L27.4875 16.6544L27.4858 16.6553L27.4838 16.6555C27.2765 16.7216 27.0779 16.8136 26.8929 16.9294C26.5453 17.1411 26.2504 17.4303 26.0314 17.7742L25.6217 18.4028L24.2437 20.5265C24.2354 20.5384 24.2283 20.5511 24.2223 20.5643L16.9538 31.753C16.6853 32.1638 16.5321 32.6388 16.5104 33.1272C16.4887 33.6157 16.5993 34.0994 16.8306 34.5268C17.0617 34.9541 17.4048 35.3092 17.8233 35.5542C18.2417 35.7991 18.7199 35.9247 19.2067 35.9176L23.0191 35.8752L23.0173 39.9456C22.949 38.6339 22.9174 37.3313 22.8752 36.0241C21.4822 36.0927 20.0945 36.1297 18.7015 36.172L18.6747 36.1723L18.6432 36.1673C18.4109 36.1091 18.1847 36.0293 17.9676 35.9291C17.7522 35.8315 17.5473 35.7122 17.3562 35.5732C17.1605 35.4279 16.9813 35.2616 16.8215 35.0774C16.7467 34.9822 16.6778 34.8762 16.6089 34.7755C16.5417 34.6698 16.4849 34.5578 16.4391 34.4409C16.3846 34.3274 16.3435 34.2078 16.3168 34.0843C16.2799 33.9649 16.2566 33.8415 16.2474 33.7164C16.2329 33.5945 16.226 33.4716 16.2268 33.3486L16.2478 32.9802C16.2796 32.742 16.3277 32.506 16.3919 32.2741L16.6371 31.6091L16.6424 31.5936L16.6632 31.5611C18.015 29.4216 19.393 27.295 20.7668 25.169L22.8482 21.9839L24.9392 18.8167C25.3008 18.2793 25.6202 17.7794 26.0138 17.2142C26.443 16.7154 26.9211 16.2611 27.4408 15.8584C27.9492 15.4595 28.4821 15.0936 29.0364 14.7626C29.5877 14.4326 30.1578 14.1359 30.7436 13.8738C31.3231 13.6 31.9193 13.3804 32.5203 13.1601C32.7117 13.1043 32.9084 13.0437 33.0998 12.9932C33.52 12.8656 33.9319 12.7495 34.3598 12.6642C34.9715 12.5082 35.5991 12.4117 36.2214 12.3076C36.8436 12.2034 37.4712 12.1839 38.0988 12.1178Z" fill="black"/>
</g>
<g style="mix-blend-mode:screen" opacity="0.35">
<path d="M22.1132 5.38884C21.3244 6.75573 20.4981 8.09556 19.6878 9.45253C18.8668 10.8299 18.009 12.1815 17.1665 13.5483L14.6239 17.6289L12.0389 21.6884C10.3121 24.3863 8.56734 27.0746 6.80475 29.7531L4.14487 33.7596C3.27093 35.0898 2.35413 36.4044 1.46412 37.7293C1.29369 38.0951 1.11249 38.4604 0.946823 38.8261L0.754929 39.4055C0.682869 39.5944 0.631105 39.7902 0.600415 39.9897L0.498943 40.5884C0.482782 40.7863 0.493468 40.984 0.482662 41.186C0.471915 41.3866 0.487843 41.5873 0.529964 41.783C0.545531 41.9831 0.585447 42.1803 0.648764 42.3702C0.701484 42.5645 0.767243 42.7548 0.845565 42.9398C0.935975 43.1181 1.01632 43.3066 1.12222 43.4745C1.22811 43.6424 1.34055 43.8138 1.46311 43.978C1.60176 44.1318 1.72903 44.2905 1.86767 44.4389C2.45298 45.0261 3.1356 45.5068 3.8858 45.86C3.49062 45.7206 3.11064 45.5421 2.75134 45.3271C2.56659 45.2253 2.38888 45.1113 2.21926 44.9859C2.10024 44.9012 1.9902 44.8092 1.87832 44.7112C1.86273 44.7007 1.84833 44.6884 1.83542 44.6747C0.91822 43.8185 0.335792 42.6609 0.191153 41.4064C0.0464538 40.152 0.34891 38.8815 1.04491 37.8195L22.1132 5.38884Z" fill="white"/>
</g>
<g style="mix-blend-mode:screen" opacity="0.35">
<path d="M33.549 36.6935C33.549 36.6935 33.698 37.4564 33.804 38.6021C33.8354 38.8855 33.8632 39.1988 33.8833 39.5259C33.9034 39.853 33.9252 40.2094 33.9679 40.5351C33.9893 40.7009 34.0053 40.8715 34.0273 41.0475C34.0754 41.2124 34.1128 41.3781 34.1497 41.5485L34.209 41.8047L34.3047 42.0426C34.36 42.208 34.4257 42.3697 34.5014 42.5266L34.7458 42.9838C34.8309 43.1322 34.9427 43.2648 35.0385 43.4029C35.1415 43.5376 35.2516 43.6666 35.3685 43.7893C35.4768 43.9178 35.5962 44.0364 35.7254 44.1437C35.9676 44.3567 36.2218 44.5555 36.4869 44.7391C36.7528 44.9022 37.0033 45.0595 37.2478 45.1852C37.4923 45.3109 37.7273 45.4254 37.935 45.5091C38.1474 45.6029 38.3343 45.6755 38.4884 45.7323C38.8025 45.8483 38.9887 45.9059 38.9887 45.9059L38.9673 45.9062C37.4825 45.7748 36.1058 45.0934 35.1046 43.9945C34.1035 42.8955 33.5493 41.4575 33.5499 39.9597L33.549 36.6935Z" fill="white"/>
</g>
<g style="mix-blend-mode:multiply" opacity="0.3">
<path d="M32.298 20.5185C32.6394 20.9428 32.97 21.378 33.2947 21.8126C33.6253 22.2585 33.9667 22.699 34.2914 23.1443C34.9467 24.041 35.5817 24.9434 36.2209 25.851C36.85 26.7641 37.4844 27.6664 38.092 28.5906C38.7157 29.5091 39.3233 30.4303 39.925 31.3623L39.9357 31.3837L39.9411 31.3944C40.1197 31.7828 40.3407 32.16 40.4901 32.5649C40.6585 32.9629 40.8044 33.3703 40.9271 33.7851C41.0598 34.1962 41.1716 34.614 41.2622 35.0369C41.3365 35.4582 41.4221 35.8799 41.4696 36.3075C41.5291 36.7349 41.5491 37.1675 41.5704 37.5954C41.5899 38.0229 41.5879 38.4513 41.5645 38.8791C41.5306 39.7167 41.4124 40.5497 41.2117 41.3654C41.2107 41.3818 41.2071 41.398 41.2009 41.4133C41.2434 40.9908 41.249 40.568 41.2611 40.1452C41.2732 39.7223 41.2507 39.3053 41.2247 38.8828C41.1987 38.4604 41.1553 38.0496 41.106 37.6382C41.0466 37.2203 40.9836 36.8103 40.9039 36.4046C40.8343 35.9935 40.7254 35.5989 40.6273 35.1934C40.4993 34.8044 40.4035 34.3989 40.254 34.0156C40.185 33.8023 40.1052 33.5945 40.0201 33.3868C40.0815 32.8954 40.0061 32.398 39.8019 31.9501C39.7644 31.8758 39.7269 31.7961 39.6828 31.7219C39.656 31.6738 39.6292 31.6316 39.5976 31.5835L37.7963 28.8486L37.7855 28.8379L32.298 20.5185Z" fill="black"/>
</g>
<g style="mix-blend-mode:screen" opacity="0.35">
<path d="M48.8778 27.4376L52.8395 33.4508L55.5085 37.5023C56.0363 38.3063 56.3364 39.2411 56.3769 40.2078C56.4174 41.1746 56.1968 42.1374 55.7385 42.9945C55.2803 43.8515 54.6013 44.5711 53.7733 45.077C52.9454 45.5829 51.9993 45.8564 51.0349 45.8686L44.4587 45.9419C44.2987 45.9383 44.1393 45.924 43.9829 45.915C45.2544 45.7993 46.5206 45.7428 47.7927 45.654C49.0535 45.5862 50.3042 45.5245 51.565 45.4782C51.7359 45.4412 51.9046 45.3947 52.0705 45.3389C52.249 45.2772 52.4221 45.212 52.5922 45.1408C52.9334 45.0011 53.2627 44.8331 53.5767 44.6385C53.7313 44.5406 53.8741 44.4268 54.024 44.3237C54.1674 44.2098 54.2953 44.0818 54.4339 43.9668C54.5666 43.8424 54.6719 43.6967 54.7957 43.5676C54.9109 43.43 55.016 43.2842 55.1099 43.1312C55.2132 42.9869 55.3007 42.8317 55.3706 42.6686C55.4547 42.5113 55.5225 42.3459 55.573 42.175L55.7278 41.6605L55.8078 41.1258L55.8453 40.858L55.8401 40.5804L55.8457 40.0353C55.8404 39.8484 55.8031 39.6674 55.7817 39.4807L55.7225 39.0038C54.5315 37.1201 53.3689 35.2226 52.2347 33.3113L51.373 31.8522C51.086 31.364 50.799 30.8813 50.5227 30.3876C49.973 29.4069 49.4097 28.4305 48.8778 27.4376Z" fill="white"/>
</g>
</g>
<defs>
<linearGradient id="paint0_linear_19_146" x1="542.526" y1="-229.61" x2="509.003" y2="-229.603" gradientUnits="userSpaceOnUse">
<stop stop-color="#C33764"/>
<stop offset="0.5" stop-color="#5B2C6C"/>
<stop offset="1" stop-color="#4D9EC3"/>
</linearGradient>
<linearGradient id="paint1_linear_19_146" x1="539.441" y1="-221.043" x2="531.59" y2="-226.684" gradientUnits="userSpaceOnUse">
<stop stop-color="#E2316A"/>
<stop offset="1" stop-color="#4D9EC3"/>
</linearGradient>
<linearGradient id="paint2_linear_19_146" x1="517.754" y1="-212.845" x2="515.656" y2="-212.845" gradientUnits="userSpaceOnUse">
<stop stop-color="#FCC400"/>
<stop offset="0.162" stop-color="#FBC000"/>
<stop offset="0.307" stop-color="#F8B500"/>
<stop offset="0.446" stop-color="#F3A300"/>
<stop offset="0.581" stop-color="#EB8900"/>
<stop offset="0.712" stop-color="#E26800"/>
<stop offset="0.842" stop-color="#D73F00"/>
<stop offset="0.967" stop-color="#CA1000"/>
<stop offset="1" stop-color="#C70300"/>
</linearGradient>
</defs>
</svg>
